<svg width="350" height="232" fill="none" xmlns="http://www.w3.org/2000/svg"><path d="M336.75 128a1 1 0 000-2v2zm3.5-2a1 1 0 000 2v-2zm3.5 2a1 1 0 000-2v2zm3.5-2a1 1 0 000 2v-2zM335 128h1.75v-2H335v2zm5.25 0h3.5v-2h-3.5v2zm7 0H349v-2h-1.75v2zM336.75 8a1 1 0 000-2v2zm3.5-2a1 1 0 000 2V6zm3.5 2a1 1 0 000-2v2zm3.5-2a1 1 0 000 2V6zM335 8h1.75V6H335v2zm5.25 0h3.5V6h-3.5v2zm7 0H349V6h-1.75v2z" fill="#00B9ED"/><path d="M350 169.167a1 1 0 10-2 0h2zm-2-3.667a1 1 0 002 0h-2zm2-3.667a1 1 0 00-2 0h2zm-2-3.666a1 1 0 002 0h-2zm2-3.667a1 1 0 00-2 0h2zm-2-3.667a1 1 0 102 0h-2zm2-3.666a1 1 0 10-2 0h2zm-2-3.667a1 1 0 002 0h-2zm2-3.667a1 1 0 00-2 0h2zm-2-3.666a1 1 0 002 0h-2zm2-3.667a1 1 0 00-2 0h2zm-2-3.667a1 1 0 102 0h-2zM350 171v-1.833h-2V171h2zm0-5.5v-3.667h-2v3.667h2zm0-7.333V154.5h-2v3.667h2zm0-7.334v-3.666h-2v3.666h2zm0-7.333v-3.667h-2v3.667h2zm0-7.333V132.5h-2v3.667h2zm0-7.334V127h-2v1.833h2zm0-69.762a1 1 0 00-2 0h2zm-2-3.857a1 1 0 002 0h-2zm2-3.857a1 1 0 00-2 0h2zm-2-3.857a1 1 0 002 0h-2zm2-3.857a1 1 0 00-2 0h2zm-2-3.857a1 1 0 002 0h-2zm2-3.857a1 1 0 00-2 0h2zm-2-3.858a1 1 0 002 0h-2zm2-3.857a1 1 0 00-2 0h2zm-2-3.857a1 1 0 002 0h-2zm2-3.857a1 1 0 00-2 0h2zm-2-3.857a1 1 0 002 0h-2zm2-3.857a1 1 0 00-2 0h2zm-2-3.857a1 1 0 002 0h-2zM350 61v-1.929h-2V61h2zm0-5.786v-3.857h-2v3.857h2zm0-7.714v-3.857h-2V47.5h2zm0-7.714v-3.857h-2v3.857h2zm0-7.715v-3.857h-2v3.858h2zm0-7.714V20.5h-2v3.857h2zm0-7.714v-3.857h-2v3.857h2zm0-7.714V7h-2v1.93h2zM2 114.036a1 1 0 10-2 0h2zm-2-3.929a1 1 0 002 0H0zm2-3.928a1 1 0 10-2 0h2zm-2-3.929a1 1 0 002 0H0zm2-3.929a1 1 0 10-2 0h2zm-2-3.928a1 1 0 002 0H0zm2-3.929a1 1 0 10-2 0h2zm-2-3.928a1 1 0 102 0H0zm2-3.929a1 1 0 00-2 0h2zM0 78.68a1 1 0 102 0H0zm2-3.929a1 1 0 10-2 0h2zm-2-3.929a1 1 0 102 0H0zm2-3.928a1 1 0 10-2 0h2zm-2-3.929a1 1 0 102 0H0zM2 116v-1.964H0V116h2zm0-5.893v-3.928H0v3.928h2zm0-7.857v-3.929H0v3.929h2zm0-7.857v-3.929H0v3.929h2zm0-7.857v-3.929H0v3.929h2zm0-7.857V74.75H0v3.929h2zm0-7.858v-3.928H0v3.928h2zm0-7.857V61H0v1.964h2zm0 161.072a1 1 0 10-2 0h2zm-2-3.929a1 1 0 002 0H0zm2-3.928a1 1 0 10-2 0h2zm-2-3.929a1 1 0 002 0H0zm2-3.929a1 1 0 00-2 0h2zm-2-3.928a1 1 0 002 0H0zm2-3.929a1 1 0 00-2 0h2zm-2-3.928a1 1 0 002 0H0zm2-3.929a1 1 0 00-2 0h2zm-2-3.928a1 1 0 002 0H0zm2-3.929a1 1 0 00-2 0h2zm-2-3.929a1 1 0 102 0H0zm2-3.928a1 1 0 00-2 0h2zm-2-3.929a1 1 0 102 0H0zM2 226v-1.964H0V226h2zm0-5.893v-3.928H0v3.928h2zm0-7.857v-3.929H0v3.929h2zm0-7.857v-3.929H0v3.929h2zm0-7.857v-3.929H0v3.929h2zm0-7.857v-3.929H0v3.929h2zm0-7.858v-3.928H0v3.928h2zm0-7.857V171H0v1.964h2z" fill="#00B9ED"/><path d="M2.977 172a1 1 0 000-2v2zm3.955-2a1 1 0 000 2v-2zm3.954 2a1 1 0 000-2v2zm3.955-2a1 1 0 000 2v-2zm3.955 2a1 1 0 000-2v2zm3.954-2a1 1 0 000 2v-2zm3.954 2a1 1 0 000-2v2zm3.955-2a1 1 0 000 2v-2zm3.955 2a1 1 0 000-2v2zm3.954-2a1 1 0 000 2v-2zm3.955 2a1 1 0 000-2v2zm3.954-2a1 1 0 000 2v-2zm3.955 2a1 1 0 000-2v2zm3.954-2a1 1 0 000 2v-2zm3.955 2a1 1 0 000-2v2zm3.954-2a1 1 0 000 2v-2zm3.955 2a1 1 0 000-2v2zm3.954-2a1 1 0 000 2v-2zm3.955 2a1 1 0 000-2v2zm3.955-2a1 1 0 000 2v-2zm3.954 2a1 1 0 000-2v2zm3.955-2a1 1 0 000 2v-2zm3.954 2a1 1 0 000-2v2zm3.955-2a1 1 0 000 2v-2zm3.954 2a1 1 0 000-2v2zm3.955-2a1 1 0 000 2v-2zm3.954 2a1 1 0 100-2v2zm3.955-2a1 1 0 000 2v-2zm3.955 2a1 1 0 000-2v2zm3.954-2a1 1 0 000 2v-2zm3.955 2a1 1 0 000-2v2zm3.954-2a1 1 0 000 2v-2zm3.955 2a1 1 0 000-2v2zm3.954-2a1 1 0 000 2v-2zm3.955 2a1 1 0 000-2v2zm3.954-2a1 1 0 000 2v-2zm3.955 2a1 1 0 000-2v2zm3.954-2a1 1 0 000 2v-2zm3.955 2a1 1 0 000-2v2zm3.955-2a1 1 0 100 2v-2zm3.954 2a1 1 0 000-2v2zm3.955-2a1 1 0 100 2v-2zm3.954 2a1 1 0 000-2v2zm3.955-2a1 1 0 100 2v-2zm3.954 2a1 1 0 100-2v2zm3.955-2a1 1 0 100 2v-2zm3.954 2a1 1 0 100-2v2zm3.955-2a1 1 0 000 2v-2zm3.954 2a1 1 0 100-2v2zm3.955-2a1 1 0 000 2v-2zm3.954 2a1 1 0 100-2v2zm3.955-2a1 1 0 000 2v-2zm3.955 2a1 1 0 000-2v2zm3.954-2a1 1 0 000 2v-2zm3.955 2a1 1 0 000-2v2zm3.954-2a1 1 0 000 2v-2zm3.955 2a1 1 0 000-2v2zm3.954-2a1 1 0 000 2v-2zm3.955 2a1 1 0 000-2v2zm3.954-2a1 1 0 000 2v-2zm3.955 2a1 1 0 000-2v2zm3.954-2a1 1 0 000 2v-2zm3.955 2a1 1 0 000-2v2zm3.955-2a1 1 0 100 2v-2zm3.954 2a1 1 0 000-2v2zm3.955-2a1 1 0 100 2v-2zm3.954 2a1 1 0 100-2v2zm3.955-2a1 1 0 100 2v-2zm3.954 2a1 1 0 100-2v2zm3.955-2a1 1 0 000 2v-2zm3.954 2a1 1 0 100-2v2zm3.955-2a1 1 0 000 2v-2zm3.955 2a1 1 0 000-2v2zm3.954-2a1 1 0 000 2v-2zm3.955 2a1 1 0 000-2v2zm3.954-2a1 1 0 000 2v-2zm3.955 2a1 1 0 000-2v2zm3.954-2a1 1 0 000 2v-2zm3.955 2a1 1 0 000-2v2zm3.955-2a1 1 0 100 2v-2zm3.954 2a1 1 0 000-2v2zm3.955-2a1 1 0 100 2v-2zm3.954 2a1 1 0 000-2v2zm3.955-2a1 1 0 100 2v-2zm3.954 2a1 1 0 100-2v2zm3.955-2a1 1 0 000 2v-2zm3.954 2a1 1 0 100-2v2zm3.955-2a1 1 0 000 2v-2zM1 172h1.977v-2H1v2zm5.932 0h3.954v-2H6.932v2zm7.909 0h3.955v-2H14.84v2zm7.909 0h3.954v-2H22.75v2zm7.91 0h3.954v-2h-3.955v2zm7.908 0h3.955v-2h-3.955v2zm7.91 0h3.954v-2h-3.955v2zm7.908 0h3.955v-2h-3.955v2zm7.91 0h3.954v-2h-3.955v2zm7.908 0h3.955v-2h-3.955v2zm7.91 0h3.954v-2h-3.954v2zm7.909 0h3.954v-2h-3.954v2zm7.909 0h3.954v-2h-3.954v2zm7.909 0h3.954v-2h-3.954v2zm7.909 0h3.955v-2h-3.955v2zm7.909 0h3.955v-2h-3.955v2zm7.909 0h3.955v-2h-3.955v2zm7.909 0h3.955v-2h-3.955v2zm7.909 0h3.955v-2h-3.955v2zm7.909 0h3.955v-2h-3.955v2zm7.91 0h3.954v-2h-3.954v2zm7.909 0h3.954v-2h-3.954v2zm7.909 0h3.954v-2h-3.954v2zm7.909 0h3.954v-2h-3.954v2zm7.909 0h3.954v-2h-3.954v2zm7.909 0h3.954v-2h-3.954v2zm7.909 0h3.955v-2h-3.955v2zm7.909 0h3.955v-2h-3.955v2zm7.909 0h3.955v-2h-3.955v2zm7.909 0h3.955v-2h-3.955v2zm7.909 0h3.955v-2h-3.955v2zm7.909 0h3.955v-2h-3.955v2zm7.91 0h3.954v-2h-3.954v2zm7.909 0h3.954v-2h-3.954v2zm7.909 0h3.954v-2h-3.954v2zm7.909 0h3.954v-2h-3.954v2zm7.909 0h3.955v-2h-3.955v2zm7.909 0h3.955v-2h-3.955v2zm7.909 0h3.955v-2h-3.955v2zm7.909 0h3.955v-2h-3.955v2zm7.91 0h3.954v-2h-3.954v2zm7.909 0h3.954v-2h-3.954v2zm7.909 0h3.954v-2h-3.954v2zm7.909 0h3.954v-2h-3.954v2zm7.909 0H349v-2h-1.977v2zM2.977 62a1 1 0 100-2v2zm3.955-2a1 1 0 000 2v-2zm3.954 2a1 1 0 000-2v2zm3.955-2a1 1 0 000 2v-2zm3.955 2a1 1 0 000-2v2zm3.954-2a1 1 0 000 2v-2zm3.954 2a1 1 0 100-2v2zm3.955-2a1 1 0 100 2v-2zm3.955 2a1 1 0 100-2v2zm3.954-2a1 1 0 100 2v-2zm3.955 2a1 1 0 100-2v2zm3.954-2a1 1 0 100 2v-2zm3.955 2a1 1 0 100-2v2zm3.954-2a1 1 0 100 2v-2zm3.955 2a1 1 0 100-2v2zm3.954-2a1 1 0 000 2v-2zm3.955 2a1 1 0 100-2v2zm3.954-2a1 1 0 000 2v-2zm3.955 2a1 1 0 100-2v2zm3.955-2a1 1 0 100 2v-2zm3.954 2a1 1 0 100-2v2zm3.955-2a1 1 0 100 2v-2zm3.954 2a1 1 0 000-2v2zm3.955-2a1 1 0 100 2v-2zm3.954 2a1 1 0 100-2v2zm3.955-2a1 1 0 000 2v-2zm3.954 2a1 1 0 100-2v2zm3.955-2a1 1 0 000 2v-2zm3.955 2a1 1 0 000-2v2zm3.954-2a1 1 0 000 2v-2zm3.955 2a1 1 0 000-2v2zm3.954-2a1 1 0 000 2v-2zm3.955 2a1 1 0 000-2v2zm3.954-2a1 1 0 000 2v-2zm3.955 2a1 1 0 000-2v2zm3.954-2a1 1 0 000 2v-2zm3.955 2a1 1 0 000-2v2zm3.954-2a1 1 0 000 2v-2zm3.955 2a1 1 0 000-2v2zm3.954-2a1 1 0 00.001 2l-.001-2zm3.955 2a1 1 0 000-2v2zm3.955-2a1 1 0 100 2v-2zm3.954 2a1 1 0 000-2v2zm3.955-2a1 1 0 100 2v-2zm3.954 2a1 1 0 100-2v2zm3.955-2a1 1 0 100 2v-2zm3.954 2a1 1 0 100-2v2zm3.955-2a1 1 0 000 2v-2zm3.954 2a1 1 0 100-2v2zm3.955-2a1 1 0 000 2v-2zm3.954 2a1 1 0 100-2v2zm3.955-2a1 1 0 000 2v-2zm3.955 2a1 1 0 000-2v2zm3.954-2a1 1 0 000 2v-2zm3.955 2a1 1 0 000-2v2zm3.954-2a1 1 0 000 2v-2zm3.955 2a1 1 0 000-2v2zm3.954-2a1 1 0 000 2v-2zm3.955 2a1 1 0 000-2v2zm3.954-2a1 1 0 000 2v-2zm3.955 2a1 1 0 000-2v2zm3.954-2a1 1 0 000 2v-2zm3.955 2a1 1 0 000-2v2zm3.955-2a1 1 0 100 2v-2zm3.954 2a1 1 0 000-2v2zm3.955-2a1 1 0 100 2v-2zm3.954 2a1 1 0 100-2v2zm3.955-2a1 1 0 100 2v-2zm3.954 2a1 1 0 100-2v2zm3.955-2a1 1 0 000 2v-2zm3.954 2a1 1 0 100-2v2zm3.955-2a1 1 0 000 2v-2zm3.955 2a1 1 0 000-2v2zm3.954-2a1 1 0 000 2v-2zm3.955 2a1 1 0 000-2v2zm3.954-2a1 1 0 000 2v-2zm3.955 2a1 1 0 000-2v2zm3.954-2a1 1 0 000 2v-2zm3.955 2a1 1 0 000-2v2zm3.955-2a1 1 0 100 2v-2zm3.954 2a1 1 0 000-2v2zm3.955-2a1 1 0 100 2v-2zm3.954 2a1 1 0 000-2v2zm3.955-2a1 1 0 100 2v-2zm3.954 2a1 1 0 100-2v2zm3.955-2a1 1 0 000 2v-2zm3.954 2a1 1 0 100-2v2zm3.955-2a1 1 0 000 2v-2zM1 62h1.977v-2H1v2zm5.932 0h3.954v-2H6.932v2zm7.909 0h3.955v-2H14.84v2zm7.909 0h3.954v-2H22.75v2zm7.91 0h3.954v-2h-3.955v2zm7.908 0h3.955v-2h-3.955v2zm7.91 0h3.954v-2h-3.955v2zm7.908 0h3.955v-2h-3.955v2zm7.91 0h3.954v-2h-3.955v2zm7.908 0h3.955v-2h-3.955v2zm7.91 0h3.954v-2h-3.954v2zm7.909 0h3.954v-2h-3.954v2zm7.909 0h3.954v-2h-3.954v2zm7.909 0h3.954v-2h-3.954v2zm7.909 0h3.955v-2h-3.955v2zm7.909 0h3.955v-2h-3.955v2zm7.909 0h3.955v-2h-3.955v2zm7.909 0h3.955v-2h-3.955v2zm7.909 0h3.955v-2h-3.955v2zm7.909 0h3.955v-2h-3.955v2zm7.91 0h3.954v-2h-3.955l.001 2zm7.909 0h3.954v-2h-3.954v2zm7.909 0h3.954v-2h-3.954v2zm7.909 0h3.954v-2h-3.954v2zm7.909 0h3.954v-2h-3.954v2zm7.909 0h3.954v-2h-3.954v2zm7.909 0h3.955v-2h-3.955v2zm7.909 0h3.955v-2h-3.955v2zm7.909 0h3.955v-2h-3.955v2zm7.909 0h3.955v-2h-3.955v2zm7.909 0h3.955v-2h-3.955v2zm7.909 0h3.955v-2h-3.955v2zm7.91 0h3.954v-2h-3.954v2zm7.909 0h3.954v-2h-3.954v2zm7.909 0h3.954v-2h-3.954v2zm7.909 0h3.954v-2h-3.954v2zm7.909 0h3.955v-2h-3.955v2zm7.909 0h3.955v-2h-3.955v2zm7.909 0h3.955v-2h-3.955v2zm7.909 0h3.955v-2h-3.955v2zm7.91 0h3.954v-2h-3.954v2zm7.909 0h3.954v-2h-3.954v2zm7.909 0h3.954v-2h-3.954v2zm7.909 0h3.954v-2h-3.954v2zm7.909 0H349v-2h-1.977v2zM15 116l-10-5.774v11.548L15 116zm-12.25 1a1 1 0 000-2v2zm3.5-2a1 1 0 000 2v-2zm3.5 2a1 1 0 000-2v2zm3.5-2a1 1 0 000 2v-2zM1 117h1.75v-2H1v2zm5.25 0h3.5v-2h-3.5v2zM15 226l-10-5.774v11.548L15 226zm-12.25 1a1 1 0 000-2v2zm3.5-2a1 1 0 000 2v-2zm3.5 2a1 1 0 000-2v2zm3.5-2a1 1 0 000 2v-2zM1 227h1.75v-2H1v2zm5.25 0h3.5v-2h-3.5v2zM185 226l-10-5.774v11.548L185 226zm-18.333 1a1 1 0 000-2v2zm3.333-2a1 1 0 000 2v-2zm3.333 2a1 1 0 100-2v2zm3.334-2a1 1 0 100 2v-2zm3.333 2a1 1 0 000-2v2zm3.333-2a1 1 0 000 2v-2zM165 227h1.667v-2H165v2zm5 0h3.333v-2H170v2zm6.667 0H180v-2h-3.333v2zM185 6L175 .226v11.547L185 6zm-18.333 1a1 1 0 000-2v2zM170 5a1 1 0 000 2V5zm3.333 2a1 1 0 100-2v2zm3.334-2a1 1 0 100 2V5zM180 7a1 1 0 000-2v2zm3.333-2a1 1 0 000 2V5zM165 7h1.667V5H165v2zm5 0h3.333V5H170v2zm6.667 0H180V5h-3.333v2zM185 116l-10-5.774v11.548L185 116zm-18.333 1a1 1 0 000-2v2zm3.333-2a1 1 0 000 2v-2zm3.333 2a1 1 0 100-2v2zm3.334-2a1 1 0 100 2v-2zm3.333 2a1 1 0 000-2v2zm3.333-2a1 1 0 000 2v-2zM165 117h1.667v-2H165v2zm5 0h3.333v-2H170v2zm6.667 0H180v-2h-3.333v2z" fill="#00B9ED"/></svg>