<svg width="45" height="45" fill="none" xmlns="http://www.w3.org/2000/svg"><rect width="45" height="45" rx="3" fill="#000"/><path d="M30.588 22.252c-.034-3.796 3.118-5.642 3.263-5.728-1.786-2.595-4.553-2.95-5.526-2.978-2.324-.243-4.58 1.387-5.763 1.387-1.208 0-3.031-1.363-4.996-1.323-2.53.039-4.895 1.498-6.192 3.764-2.678 4.62-.681 11.41 1.884 15.145 1.284 1.829 2.783 3.871 4.746 3.8 1.92-.08 2.638-1.22 4.955-1.22 2.296 0 2.97 1.22 4.971 1.174 2.061-.034 3.359-1.838 4.597-3.683 1.483-2.097 2.079-4.161 2.102-4.267-.048-.017-4.002-1.52-4.041-6.07zM26.806 11.09c1.033-1.288 1.74-3.04 1.544-4.816-1.495.066-3.365 1.03-4.441 2.29-.953 1.109-1.803 2.927-1.583 4.637 1.679.125 3.403-.844 4.48-2.111z" fill="#fff"/></svg>