<svg width="45" height="45" fill="none" xmlns="http://www.w3.org/2000/svg"><path d="M41.755 0H3.245A3.245 3.245 0 000 3.245v38.51A3.245 3.245 0 003.245 45h38.51A3.245 3.245 0 0045 41.755V3.245A3.245 3.245 0 0041.755 0zm-19.08 34.544c-1.392 0-2.736-.197-4.001-.56l-4.538 2.578V31.71c-3.039-2.313-4.98-5.835-4.98-9.78 0-6.966 6.053-12.614 13.52-12.614s13.52 5.648 13.52 12.614c0 6.966-6.053 12.614-13.52 12.614z" fill="#2196F3"/><path d="M21.232 18.476l-7.29 7.719 6.634-3.64 3.467 3.64 7.25-7.72-6.561 3.577-3.5-3.576z" fill="#2196F3"/></svg>