<svg width="45" height="45" fill="none" xmlns="http://www.w3.org/2000/svg"><rect width="45" height="45" rx="3" fill="#000"/><path fill-rule="evenodd" clip-rule="evenodd" d="M11.777 8.475c-.326.351-.515.887-.515 1.588V34.94c0 .7.189 1.237.527 1.573l.087.076L25.86 22.651v-.31L11.865 8.4l-.088.075z" fill="url(#paint0_linear_513_160)"/><path fill-rule="evenodd" clip-rule="evenodd" d="M30.513 27.311l-4.664-4.648v-.326l4.664-4.648.101.061 5.518 3.125c1.579.887 1.579 2.352 0 3.25l-5.518 3.125-.1.061z" fill="url(#paint1_linear_513_160)"/><path fill-rule="evenodd" clip-rule="evenodd" d="M30.614 27.25L25.85 22.5 11.777 36.525c.516.55 1.38.611 2.345.075l16.492-9.35z" fill="url(#paint2_linear_513_160)"/><path fill-rule="evenodd" clip-rule="evenodd" d="M30.614 17.75L14.122 8.413c-.965-.55-1.832-.474-2.345.076L25.85 22.5l4.765-4.749z" fill="url(#paint3_linear_513_160)"/><path opacity=".2" fill-rule="evenodd" clip-rule="evenodd" d="M30.513 27.148l-16.38 9.275c-.914.525-1.73.488-2.257.012l-.087.087.087.075c.526.474 1.343.514 2.257-.01l16.492-9.338-.112-.1z" fill="#000"/><path opacity=".12" fill-rule="evenodd" clip-rule="evenodd" d="M36.131 23.962L30.5 27.149l.101.1 5.517-3.125c.791-.448 1.18-1.038 1.18-1.624-.048.539-.45 1.05-1.166 1.462z" fill="#000"/><path opacity=".25" fill-rule="evenodd" clip-rule="evenodd" d="M14.122 8.576l22.01 12.462c.714.402 1.117.926 1.179 1.462 0-.586-.389-1.175-1.18-1.624L14.122 8.414c-1.579-.9-2.86-.149-2.86 1.65v.162c0-1.801 1.281-2.539 2.86-1.65z" fill="#fff"/><defs><linearGradient id="paint0_linear_513_160" x1="24.606" y1="9.795" x2="2.215" y2="15.781" gradientUnits="userSpaceOnUse"><stop stop-color="#00A0FF"/><stop offset=".007" stop-color="#00A1FF"/><stop offset=".26" stop-color="#00BEFF"/><stop offset=".512" stop-color="#00D2FF"/><stop offset=".76" stop-color="#00DFFF"/><stop offset="1" stop-color="#00E3FF"/></linearGradient><linearGradient id="paint1_linear_513_160" x1="38.191" y1="22.5" x2="10.879" y2="22.5" gradientUnits="userSpaceOnUse"><stop stop-color="#FFE000"/><stop offset=".409" stop-color="#FFBD00"/><stop offset=".775" stop-color="orange"/><stop offset="1" stop-color="#FF9C00"/></linearGradient><linearGradient id="paint2_linear_513_160" x1="28.023" y1="25.084" x2="10.129" y2="55.303" gradientUnits="userSpaceOnUse"><stop stop-color="#FF3A44"/><stop offset="1" stop-color="#C31162"/></linearGradient><linearGradient id="paint3_linear_513_160" x1="8.234" y1=".201" x2="16.217" y2="13.697" gradientUnits="userSpaceOnUse"><stop stop-color="#32A071"/><stop offset=".069" stop-color="#2DA771"/><stop offset=".476" stop-color="#15CF74"/><stop offset=".801" stop-color="#06E775"/><stop offset="1" stop-color="#00F076"/></linearGradient></defs></svg>