<svg width="16" height="15" fill="none" xmlns="http://www.w3.org/2000/svg"><path d="M15.69 4.323a4.976 4.976 0 00-.36-1.78 3.484 3.484 0 00-.92-1.304 3.806 3.806 0 00-1.39-.848A6.144 6.144 0 0011.1.047C10.26 0 9.95 0 7.84 0S5.43 0 4.59.047a6.05 6.05 0 00-1.91.335 3.784 3.784 0 00-1.4.857 3.501 3.501 0 00-.91 1.295A5.055 5.055 0 000 4.324V7.35c0 1.994 0 2.255.05 3.038.01.608.131 1.21.36 1.78.201.491.515.936.92 1.303.39.376.865.665 1.39.848a6.145 6.145 0 001.92.345h6.51a6.08 6.08 0 001.91-.345 4.042 4.042 0 001.402-.846 3.71 3.71 0 00.908-1.306c.228-.57.353-1.171.37-1.78V7.352c0-2.003-.01-2.245-.05-3.028zm-1.42 6.01a3.65 3.65 0 01-.27 1.36c-.13.319-.33.608-.589.849-.258.24-.569.428-.911.549a4.506 4.506 0 01-1.46.251H4.66c-.502-.002-1-.087-1.47-.252a2.494 2.494 0 01-.9-.55 2.255 2.255 0 01-.59-.847 3.608 3.608 0 01-.27-1.36c0-.774-.05-1.007-.05-2.973 0-1.965 0-2.198.05-2.972 0-.465.092-.925.27-1.36.128-.32.33-.609.59-.848.258-.24.569-.428.91-.55.466-.165.961-.25 1.46-.251.83 0 1.08-.047 3.19-.047s2.36 0 3.19.047c.499 0 .994.086 1.46.251.344.118.655.305.91.55.258.241.46.53.59.848.178.434.27.895.27 1.36V7.36c0 1.966.04 2.19 0 2.973z" fill="#000"/><path d="M7.84 3.578a4.27 4.27 0 00-2.243.66 3.846 3.846 0 00-1.473 1.709 3.542 3.542 0 00-.209 2.183c.163.731.555 1.4 1.125 1.925a4.164 4.164 0 002.082 1.02 4.35 4.35 0 002.34-.227 4.009 4.009 0 001.812-1.398 3.6 3.6 0 00.676-2.099 3.562 3.562 0 00-.317-1.455 3.782 3.782 0 00-.893-1.23 4.099 4.099 0 00-1.333-.815 4.323 4.323 0 00-1.567-.273zm0 6.233a2.78 2.78 0 01-1.467-.415 2.506 2.506 0 01-.972-1.104 2.299 2.299 0 01-.15-1.42c.102-.478.353-.916.722-1.26a2.71 2.71 0 011.352-.673 2.82 2.82 0 011.525.14c.483.186.895.501 1.185.906.29.404.445.88.445 1.366a2.38 2.38 0 01-.773 1.74 2.741 2.741 0 01-1.867.72zm5.17-6.382a.887.887 0 01-.168.517.988.988 0 01-.45.343 1.05 1.05 0 01-.577.053 1.025 1.025 0 01-.512-.254.914.914 0 01-.274-.478.873.873 0 01.057-.538.95.95 0 01.368-.418 1.059 1.059 0 011.263.116.9.9 0 01.293.659z" fill="#000"/></svg>