<svg width="15" height="14" fill="none" xmlns="http://www.w3.org/2000/svg"><path d="M13.992 11.557l-.68.624c-.43.413-.967.716-1.559.879a3.845 3.845 0 01-1.821.053 12.283 12.283 0 01-3.46-1.444 15.85 15.85 0 01-2.73-2.05 14.698 14.698 0 01-2-2.302 11.325 11.325 0 01-1.58-2.916 3.134 3.134 0 01-.056-1.803 3.31 3.31 0 01.956-1.57l.8-.736a.585.585 0 01.8 0l2.52 2.302c.105.1.165.236.165.377 0 .141-.06.276-.165.377l-1.48 1.407a1.052 1.052 0 00-.12 1.454c.53.677 1.119 1.312 1.76 1.9a17.05 17.05 0 002.33 1.864 1.276 1.276 0 001.55-.121l1.43-1.37a.592.592 0 01.4-.153c.15 0 .293.055.4.153l2.54 2.33a.512.512 0 01.164.372c0 .14-.06.273-.164.373z" fill="#000"/></svg>