<svg width="21" height="15" fill="none" xmlns="http://www.w3.org/2000/svg"><path d="M10.575 14.164a55.472 55.472 0 01-7.32-.419 3.06 3.06 0 01-1.365-.725 2.757 2.757 0 01-.785-1.269 19.41 19.41 0 01-.36-4.183c-.031-1.415.09-2.829.36-4.22a2.86 2.86 0 01.79-1.262 3.18 3.18 0 011.35-.742 56.47 56.47 0 017.32-.41c2.45-.022 4.9.118 7.33.42.512.127.98.378 1.354.728.374.35.642.787.776 1.265.282 1.397.403 2.818.36 4.24a18.702 18.702 0 01-.36 4.174c-.135.479-.404.916-.78 1.266s-.846.602-1.36.727a58.127 58.127 0 01-7.32.4l.01.01zM2.595 3.73a18.467 18.467 0 00-.31 3.839 17.582 17.582 0 00.31 3.81c.07.22.2.421.374.584.174.162.39.282.626.348a56.22 56.22 0 006.93.373 56.28 56.28 0 006.93-.364c.236-.066.45-.186.625-.349.175-.162.303-.362.375-.582a18.24 18.24 0 00.31-3.802c.07-1.289 0-2.581-.21-3.857a1.361 1.361 0 00-.388-.623 1.511 1.511 0 00-.672-.355 54.073 54.073 0 00-6.92-.373 58.12 58.12 0 00-6.93.354 1.556 1.556 0 00-.665.37 1.404 1.404 0 00-.385.627zm6.02 6.718V4.66l5.37 2.888-5.37 2.898z" fill="#000"/></svg>