<svg width="36" height="22" viewBox="0 0 36 22" fill="none" xmlns="http://www.w3.org/2000/svg">
<rect x="36" y="0.000366211" width="22" height="36" rx="5" transform="rotate(90 36 0.000366211)" fill="white"/>
<path d="M19 4.00049C19 3.4482 18.5523 3.00049 18 3.00049C17.4477 3.00049 17 3.4482 17 4.00049L19 4.00049ZM17.2929 17.7074C17.6834 18.0979 18.3166 18.0979 18.7071 17.7074L25.0711 11.3434C25.4616 10.9529 25.4616 10.3198 25.0711 9.92923C24.6805 9.53871 24.0474 9.53871 23.6569 9.92923L18 15.5861L12.3431 9.92923C11.9526 9.53871 11.3195 9.53871 10.9289 9.92923C10.5384 10.3198 10.5384 10.9529 10.9289 11.3434L17.2929 17.7074ZM17 4.00049L17 17.0003L19 17.0003L19 4.00049L17 4.00049Z" fill="#00B9ED"/>
</svg>
