<svg width="350" height="232" viewBox="0 0 350 232" fill="none" xmlns="http://www.w3.org/2000/svg">
<path d="M336.75 128C337.302 128 337.75 127.552 337.75 127C337.75 126.448 337.302 126 336.75 126V128ZM340.25 126C339.698 126 339.25 126.448 339.25 127C339.25 127.552 339.698 128 340.25 128V126ZM343.75 128C344.302 128 344.75 127.552 344.75 127C344.75 126.448 344.302 126 343.75 126V128ZM347.25 126C346.698 126 346.25 126.448 346.25 127C346.25 127.552 346.698 128 347.25 128V126ZM335 128H336.75V126H335V128ZM340.25 128H343.75V126H340.25V128ZM347.25 128H349V126H347.25V128Z" fill="#00B9ED"/>
<path d="M336.75 8C337.302 8 337.75 7.55228 337.75 7C337.75 6.44772 337.302 6 336.75 6V8ZM340.25 6C339.698 6 339.25 6.44772 339.25 7C339.25 7.55228 339.698 8 340.25 8V6ZM343.75 8C344.302 8 344.75 7.55228 344.75 7C344.75 6.44772 344.302 6 343.75 6V8ZM347.25 6C346.698 6 346.25 6.44772 346.25 7C346.25 7.55228 346.698 8 347.25 8V6ZM335 8H336.75V6H335V8ZM340.25 8H343.75V6H340.25V8ZM347.25 8H349V6H347.25V8Z" fill="#00B9ED"/>
<path d="M350 169.167C350 168.614 349.552 168.167 349 168.167C348.448 168.167 348 168.614 348 169.167L350 169.167ZM348 165.5C348 166.052 348.448 166.5 349 166.5C349.552 166.5 350 166.052 350 165.5L348 165.5ZM350 161.833C350 161.281 349.552 160.833 349 160.833C348.448 160.833 348 161.281 348 161.833L350 161.833ZM348 158.167C348 158.719 348.448 159.167 349 159.167C349.552 159.167 350 158.719 350 158.167L348 158.167ZM350 154.5C350 153.948 349.552 153.5 349 153.5C348.448 153.5 348 153.948 348 154.5L350 154.5ZM348 150.833C348 151.386 348.448 151.833 349 151.833C349.552 151.833 350 151.386 350 150.833L348 150.833ZM350 147.167C350 146.614 349.552 146.167 349 146.167C348.448 146.167 348 146.614 348 147.167L350 147.167ZM348 143.5C348 144.052 348.448 144.5 349 144.5C349.552 144.5 350 144.052 350 143.5L348 143.5ZM350 139.833C350 139.281 349.552 138.833 349 138.833C348.448 138.833 348 139.281 348 139.833L350 139.833ZM348 136.167C348 136.719 348.448 137.167 349 137.167C349.552 137.167 350 136.719 350 136.167L348 136.167ZM350 132.5C350 131.948 349.552 131.5 349 131.5C348.448 131.5 348 131.948 348 132.5L350 132.5ZM348 128.833C348 129.386 348.448 129.833 349 129.833C349.552 129.833 350 129.386 350 128.833L348 128.833ZM350 171L350 169.167L348 169.167L348 171L350 171ZM350 165.5L350 161.833L348 161.833L348 165.5L350 165.5ZM350 158.167L350 154.5L348 154.5L348 158.167L350 158.167ZM350 150.833L350 147.167L348 147.167L348 150.833L350 150.833ZM350 143.5L350 139.833L348 139.833L348 143.5L350 143.5ZM350 136.167L350 132.5L348 132.5L348 136.167L350 136.167ZM350 128.833L350 127L348 127L348 128.833L350 128.833Z" fill="#00B9ED"/>
<path d="M350 59.0714C350 58.5191 349.552 58.0714 349 58.0714C348.448 58.0714 348 58.5191 348 59.0714L350 59.0714ZM348 55.2143C348 55.7666 348.448 56.2143 349 56.2143C349.552 56.2143 350 55.7666 350 55.2143L348 55.2143ZM350 51.3572C350 50.8049 349.552 50.3572 349 50.3572C348.448 50.3572 348 50.8049 348 51.3572L350 51.3572ZM348 47.5C348 48.0523 348.448 48.5 349 48.5C349.552 48.5 350 48.0523 350 47.5L348 47.5ZM350 43.6429C350 43.0906 349.552 42.6429 349 42.6429C348.448 42.6429 348 43.0906 348 43.6429L350 43.6429ZM348 39.7858C348 40.338 348.448 40.7858 349 40.7858C349.552 40.7858 350 40.338 350 39.7858L348 39.7858ZM350 35.9286C350 35.3763 349.552 34.9286 349 34.9286C348.448 34.9286 348 35.3763 348 35.9286L350 35.9286ZM348 32.0715C348 32.6238 348.448 33.0715 349 33.0715C349.552 33.0715 350 32.6238 350 32.0715L348 32.0715ZM350 28.2144C350 27.6621 349.552 27.2144 349 27.2144C348.448 27.2144 348 27.6621 348 28.2144L350 28.2144ZM348 24.3572C348 24.9095 348.448 25.3572 349 25.3572C349.552 25.3572 350 24.9095 350 24.3572L348 24.3572ZM350 20.5001C350 19.9478 349.552 19.5001 349 19.5001C348.448 19.5001 348 19.9478 348 20.5001L350 20.5001ZM348 16.643C348 17.1952 348.448 17.643 349 17.643C349.552 17.643 350 17.1952 350 16.643L348 16.643ZM350 12.7858C350 12.2335 349.552 11.7858 349 11.7858C348.448 11.7858 348 12.2335 348 12.7858L350 12.7858ZM348 8.92868C348 9.48097 348.448 9.92868 349 9.92868C349.552 9.92868 350 9.48096 350 8.92868L348 8.92868ZM350 61L350 59.0714L348 59.0714L348 61L350 61ZM350 55.2143L350 51.3572L348 51.3572L348 55.2143L350 55.2143ZM350 47.5L350 43.6429L348 43.6429L348 47.5L350 47.5ZM350 39.7858L350 35.9286L348 35.9286L348 39.7858L350 39.7858ZM350 32.0715L350 28.2144L348 28.2144L348 32.0715L350 32.0715ZM350 24.3572L350 20.5001L348 20.5001L348 24.3572L350 24.3572ZM350 16.643L350 12.7858L348 12.7858L348 16.643L350 16.643ZM350 8.92868L350 7.00012L348 7.00012L348 8.92868L350 8.92868Z" fill="#00B9ED"/>
<path d="M2 114.036C2 113.483 1.55229 113.036 1 113.036C0.447717 113.036 2.22838e-06 113.483 2.21025e-06 114.036L2 114.036ZM2.16041e-06 110.107C2.20188e-06 110.659 0.447717 111.107 1 111.107C1.55229 111.107 2 110.659 2 110.107L2.16041e-06 110.107ZM2 106.179C2 105.626 1.55229 105.179 1 105.179C0.447717 105.179 2.1287e-06 105.626 2.17017e-06 106.179L2 106.179ZM2.12033e-06 102.25C2.1022e-06 102.802 0.447717 103.25 1 103.25C1.55229 103.25 2 102.802 2 102.25L2.12033e-06 102.25ZM2 98.3214C2 97.7691 1.55229 97.3214 1 97.3214C0.447717 97.3214 2.08862e-06 97.7691 2.07049e-06 98.3214L2 98.3214ZM2.08025e-06 94.3929C2.06212e-06 94.9451 0.447717 95.3929 1 95.3929C1.55229 95.3929 2 94.9451 2 94.3929L2.08025e-06 94.3929ZM2 90.4643C2 89.912 1.55229 89.4643 1 89.4643C0.447717 89.4643 2.04854e-06 89.912 2.03041e-06 90.4643L2 90.4643ZM1.98057e-06 86.5357C2.02204e-06 87.088 0.447717 87.5357 1 87.5357C1.55229 87.5357 2 87.088 2 86.5357L1.98057e-06 86.5357ZM2 82.6071C2 82.0549 1.55229 81.6071 1 81.6071C0.447717 81.6071 1.94886e-06 82.0549 1.99033e-06 82.6071L2 82.6071ZM1.94049e-06 78.6786C1.92236e-06 79.2309 0.447717 79.6786 1 79.6786C1.55229 79.6786 2 79.2309 2 78.6786L1.94049e-06 78.6786ZM2 74.75C2 74.1977 1.55229 73.75 1 73.75C0.447717 73.75 1.90878e-06 74.1977 1.89065e-06 74.75L2 74.75ZM1.90041e-06 70.8214C1.88228e-06 71.3737 0.447717 71.8214 1 71.8214C1.55229 71.8214 2 71.3737 2 70.8214L1.90041e-06 70.8214ZM2 66.8929C2 66.3406 1.55229 65.8929 1 65.8929C0.447717 65.8929 1.8687e-06 66.3406 1.85057e-06 66.8929L2 66.8929ZM1.80073e-06 62.9643C1.8422e-06 63.5166 0.447717 63.9643 1 63.9643C1.55229 63.9643 2 63.5166 2 62.9643L1.80073e-06 62.9643ZM2 116L2 114.036L2.21025e-06 114.036L2.20537e-06 116L2 116ZM2 110.107L2 106.179L2.17017e-06 106.179L2.16041e-06 110.107L2 110.107ZM2 102.25L2 98.3214L2.07049e-06 98.3214L2.12033e-06 102.25L2 102.25ZM2 94.3929L2 90.4643L2.03041e-06 90.4643L2.08025e-06 94.3929L2 94.3929ZM2 86.5357L2 82.6071L1.99033e-06 82.6071L1.98057e-06 86.5357L2 86.5357ZM2 78.6786L2 74.75L1.89065e-06 74.75L1.94049e-06 78.6786L2 78.6786ZM2 70.8214L2 66.8929L1.85057e-06 66.8929L1.90041e-06 70.8214L2 70.8214ZM2 62.9643L2 61L1.80561e-06 61L1.80073e-06 62.9643L2 62.9643Z" fill="#00B9ED"/>
<path d="M2 224.036C2 223.483 1.55229 223.036 1 223.036C0.447717 223.036 2.22838e-06 223.483 2.21025e-06 224.036L2 224.036ZM2.16041e-06 220.107C2.20188e-06 220.659 0.447717 221.107 1 221.107C1.55229 221.107 2 220.659 2 220.107L2.16041e-06 220.107ZM2 216.179C2 215.626 1.55229 215.179 1 215.179C0.447717 215.179 2.1287e-06 215.626 2.17017e-06 216.179L2 216.179ZM2.12033e-06 212.25C2.1022e-06 212.802 0.447717 213.25 1 213.25C1.55229 213.25 2 212.802 2 212.25L2.12033e-06 212.25ZM2 208.321C2 207.769 1.55229 207.321 1 207.321C0.447717 207.321 2.08862e-06 207.769 2.07049e-06 208.321L2 208.321ZM2.08025e-06 204.393C2.06212e-06 204.945 0.447717 205.393 1 205.393C1.55229 205.393 2 204.945 2 204.393L2.08025e-06 204.393ZM2 200.464C2 199.912 1.55229 199.464 1 199.464C0.447717 199.464 2.04854e-06 199.912 2.03041e-06 200.464L2 200.464ZM1.98057e-06 196.536C2.02204e-06 197.088 0.447717 197.536 1 197.536C1.55229 197.536 2 197.088 2 196.536L1.98057e-06 196.536ZM2 192.607C2 192.055 1.55229 191.607 1 191.607C0.447717 191.607 1.94886e-06 192.055 1.99033e-06 192.607L2 192.607ZM1.94049e-06 188.679C1.92236e-06 189.231 0.447717 189.679 1 189.679C1.55229 189.679 2 189.231 2 188.679L1.94049e-06 188.679ZM2 184.75C2 184.198 1.55229 183.75 1 183.75C0.447717 183.75 1.90878e-06 184.198 1.89065e-06 184.75L2 184.75ZM1.90041e-06 180.821C1.88228e-06 181.374 0.447717 181.821 1 181.821C1.55229 181.821 2 181.374 2 180.821L1.90041e-06 180.821ZM2 176.893C2 176.341 1.55229 175.893 1 175.893C0.447717 175.893 1.8687e-06 176.341 1.85057e-06 176.893L2 176.893ZM1.80073e-06 172.964C1.8422e-06 173.517 0.447717 173.964 1 173.964C1.55229 173.964 2 173.517 2 172.964L1.80073e-06 172.964ZM2 226L2 224.036L2.21025e-06 224.036L2.20537e-06 226L2 226ZM2 220.107L2 216.179L2.17017e-06 216.179L2.16041e-06 220.107L2 220.107ZM2 212.25L2 208.321L2.07049e-06 208.321L2.12033e-06 212.25L2 212.25ZM2 204.393L2 200.464L2.03041e-06 200.464L2.08025e-06 204.393L2 204.393ZM2 196.536L2 192.607L1.99033e-06 192.607L1.98057e-06 196.536L2 196.536ZM2 188.679L2 184.75L1.89065e-06 184.75L1.94049e-06 188.679L2 188.679ZM2 180.821L2 176.893L1.85057e-06 176.893L1.90041e-06 180.821L2 180.821ZM2 172.964L2 171L1.80561e-06 171L1.80073e-06 172.964L2 172.964Z" fill="#00B9ED"/>
<path d="M2.97727 172C3.52956 172 3.97727 171.552 3.97727 171C3.97727 170.448 3.52956 170 2.97727 170L2.97727 172ZM6.93182 170C6.37953 170 5.93182 170.448 5.93182 171C5.93182 171.552 6.37953 172 6.93182 172L6.93182 170ZM10.8864 172C11.4386 172 11.8864 171.552 11.8864 171C11.8864 170.448 11.4386 170 10.8864 170L10.8864 172ZM14.8409 170C14.2886 170 13.8409 170.448 13.8409 171C13.8409 171.552 14.2886 172 14.8409 172L14.8409 170ZM18.7955 172C19.3477 172 19.7955 171.552 19.7955 171C19.7955 170.448 19.3477 170 18.7955 170L18.7955 172ZM22.75 170C22.1977 170 21.75 170.448 21.75 171C21.75 171.552 22.1977 172 22.75 172L22.75 170ZM26.7045 172C27.2568 172 27.7045 171.552 27.7045 171C27.7045 170.448 27.2568 170 26.7045 170L26.7045 172ZM30.6591 170C30.1068 170 29.6591 170.448 29.6591 171C29.6591 171.552 30.1068 172 30.6591 172L30.6591 170ZM34.6136 172C35.1659 172 35.6136 171.552 35.6136 171C35.6136 170.448 35.1659 170 34.6136 170L34.6136 172ZM38.5682 170C38.0159 170 37.5682 170.448 37.5682 171C37.5682 171.552 38.0159 172 38.5682 172L38.5682 170ZM42.5227 172C43.075 172 43.5227 171.552 43.5227 171C43.5227 170.448 43.075 170 42.5227 170L42.5227 172ZM46.4773 170C45.925 170 45.4773 170.448 45.4773 171C45.4773 171.552 45.925 172 46.4773 172L46.4773 170ZM50.4318 172C50.9841 172 51.4318 171.552 51.4318 171C51.4318 170.448 50.9841 170 50.4318 170L50.4318 172ZM54.3864 170C53.8341 170 53.3864 170.448 53.3864 171C53.3864 171.552 53.8341 172 54.3864 172L54.3864 170ZM58.3409 172C58.8932 172 59.3409 171.552 59.3409 171C59.3409 170.448 58.8932 170 58.3409 170L58.3409 172ZM62.2954 170C61.7432 170 61.2954 170.448 61.2954 171C61.2954 171.552 61.7432 172 62.2954 172L62.2954 170ZM66.25 172C66.8023 172 67.25 171.552 67.25 171C67.25 170.448 66.8023 170 66.25 170L66.25 172ZM70.2045 170C69.6523 170 69.2045 170.448 69.2045 171C69.2045 171.552 69.6523 172 70.2045 172L70.2045 170ZM74.1591 172C74.7114 172 75.1591 171.552 75.1591 171C75.1591 170.448 74.7114 170 74.1591 170L74.1591 172ZM78.1136 170C77.5613 170 77.1136 170.448 77.1136 171C77.1136 171.552 77.5613 172 78.1136 172L78.1136 170ZM82.0682 172C82.6205 172 83.0682 171.552 83.0682 171C83.0682 170.448 82.6205 170 82.0682 170L82.0682 172ZM86.0227 170C85.4704 170 85.0227 170.448 85.0227 171C85.0227 171.552 85.4704 172 86.0227 172L86.0227 170ZM89.9773 172C90.5295 172 90.9773 171.552 90.9773 171C90.9773 170.448 90.5295 170 89.9773 170L89.9773 172ZM93.9318 170C93.3795 170 92.9318 170.448 92.9318 171C92.9318 171.552 93.3795 172 93.9318 172L93.9318 170ZM97.8863 172C98.4386 172 98.8863 171.552 98.8863 171C98.8863 170.448 98.4386 170 97.8863 170L97.8863 172ZM101.841 170C101.289 170 100.841 170.448 100.841 171C100.841 171.552 101.289 172 101.841 172L101.841 170ZM105.795 172C106.348 172 106.795 171.552 106.795 171C106.795 170.448 106.348 170 105.795 170L105.795 172ZM109.75 170C109.198 170 108.75 170.448 108.75 171C108.75 171.552 109.198 172 109.75 172L109.75 170ZM113.705 172C114.257 172 114.705 171.552 114.705 171C114.705 170.448 114.257 170 113.705 170L113.705 172ZM117.659 170C117.107 170 116.659 170.448 116.659 171C116.659 171.552 117.107 172 117.659 172L117.659 170ZM121.614 172C122.166 172 122.614 171.552 122.614 171C122.614 170.448 122.166 170 121.614 170L121.614 172ZM125.568 170C125.016 170 124.568 170.448 124.568 171C124.568 171.552 125.016 172 125.568 172L125.568 170ZM129.523 172C130.075 172 130.523 171.552 130.523 171C130.523 170.448 130.075 170 129.523 170L129.523 172ZM133.477 170C132.925 170 132.477 170.448 132.477 171C132.477 171.552 132.925 172 133.477 172L133.477 170ZM137.432 172C137.984 172 138.432 171.552 138.432 171C138.432 170.448 137.984 170 137.432 170L137.432 172ZM141.386 170C140.834 170 140.386 170.448 140.386 171C140.386 171.552 140.834 172 141.386 172L141.386 170ZM145.341 172C145.893 172 146.341 171.552 146.341 171C146.341 170.448 145.893 170 145.341 170L145.341 172ZM149.295 170C148.743 170 148.295 170.448 148.295 171C148.295 171.552 148.743 172 149.295 172L149.295 170ZM153.25 172C153.802 172 154.25 171.552 154.25 171C154.25 170.448 153.802 170 153.25 170L153.25 172ZM157.205 170C156.652 170 156.205 170.448 156.205 171C156.205 171.552 156.652 172 157.205 172L157.205 170ZM161.159 172C161.711 172 162.159 171.552 162.159 171C162.159 170.448 161.711 170 161.159 170L161.159 172ZM165.114 170C164.561 170 164.114 170.448 164.114 171C164.114 171.552 164.561 172 165.114 172L165.114 170ZM169.068 172C169.62 172 170.068 171.552 170.068 171C170.068 170.448 169.62 170 169.068 170L169.068 172ZM173.023 170C172.47 170 172.023 170.448 172.023 171C172.023 171.552 172.47 172 173.023 172L173.023 170ZM176.977 172C177.53 172 177.977 171.552 177.977 171C177.977 170.448 177.53 170 176.977 170L176.977 172ZM180.932 170C180.379 170 179.932 170.448 179.932 171C179.932 171.552 180.379 172 180.932 172L180.932 170ZM184.886 172C185.439 172 185.886 171.552 185.886 171C185.886 170.448 185.439 170 184.886 170L184.886 172ZM188.841 170C188.289 170 187.841 170.448 187.841 171C187.841 171.552 188.289 172 188.841 172L188.841 170ZM192.795 172C193.348 172 193.795 171.552 193.795 171C193.795 170.448 193.348 170 192.795 170L192.795 172ZM196.75 170C196.198 170 195.75 170.448 195.75 171C195.75 171.552 196.198 172 196.75 172L196.75 170ZM200.704 172C201.257 172 201.704 171.552 201.704 171C201.704 170.448 201.257 170 200.704 170L200.704 172ZM204.659 170C204.107 170 203.659 170.448 203.659 171C203.659 171.552 204.107 172 204.659 172L204.659 170ZM208.614 172C209.166 172 209.614 171.552 209.614 171C209.614 170.448 209.166 170 208.614 170L208.614 172ZM212.568 170C212.016 170 211.568 170.448 211.568 171C211.568 171.552 212.016 172 212.568 172L212.568 170ZM216.523 172C217.075 172 217.523 171.552 217.523 171C217.523 170.448 217.075 170 216.523 170L216.523 172ZM220.477 170C219.925 170 219.477 170.448 219.477 171C219.477 171.552 219.925 172 220.477 172L220.477 170ZM224.432 172C224.984 172 225.432 171.552 225.432 171C225.432 170.448 224.984 170 224.432 170L224.432 172ZM228.386 170C227.834 170 227.386 170.448 227.386 171C227.386 171.552 227.834 172 228.386 172L228.386 170ZM232.341 172C232.893 172 233.341 171.552 233.341 171C233.341 170.448 232.893 170 232.341 170L232.341 172ZM236.295 170C235.743 170 235.295 170.448 235.295 171C235.295 171.552 235.743 172 236.295 172L236.295 170ZM240.25 172C240.802 172 241.25 171.552 241.25 171C241.25 170.448 240.802 170 240.25 170L240.25 172ZM244.204 170C243.652 170 243.204 170.448 243.204 171C243.204 171.552 243.652 172 244.204 172L244.204 170ZM248.159 172C248.711 172 249.159 171.552 249.159 171C249.159 170.448 248.711 170 248.159 170L248.159 172ZM252.114 170C251.561 170 251.114 170.448 251.114 171C251.114 171.552 251.561 172 252.114 172L252.114 170ZM256.068 172C256.62 172 257.068 171.552 257.068 171C257.068 170.448 256.62 170 256.068 170L256.068 172ZM260.023 170C259.47 170 259.023 170.448 259.023 171C259.023 171.552 259.47 172 260.023 172L260.023 170ZM263.977 172C264.53 172 264.977 171.552 264.977 171C264.977 170.448 264.53 170 263.977 170L263.977 172ZM267.932 170C267.379 170 266.932 170.448 266.932 171C266.932 171.552 267.379 172 267.932 172L267.932 170ZM271.886 172C272.439 172 272.886 171.552 272.886 171C272.886 170.448 272.439 170 271.886 170L271.886 172ZM275.841 170C275.289 170 274.841 170.448 274.841 171C274.841 171.552 275.289 172 275.841 172L275.841 170ZM279.795 172C280.348 172 280.795 171.552 280.795 171C280.795 170.448 280.348 170 279.795 170L279.795 172ZM283.75 170C283.198 170 282.75 170.448 282.75 171C282.75 171.552 283.198 172 283.75 172L283.75 170ZM287.705 172C288.257 172 288.705 171.552 288.705 171C288.705 170.448 288.257 170 287.705 170L287.705 172ZM291.659 170C291.107 170 290.659 170.448 290.659 171C290.659 171.552 291.107 172 291.659 172L291.659 170ZM295.614 172C296.166 172 296.614 171.552 296.614 171C296.614 170.448 296.166 170 295.614 170L295.614 172ZM299.568 170C299.016 170 298.568 170.448 298.568 171C298.568 171.552 299.016 172 299.568 172L299.568 170ZM303.523 172C304.075 172 304.523 171.552 304.523 171C304.523 170.448 304.075 170 303.523 170L303.523 172ZM307.477 170C306.925 170 306.477 170.448 306.477 171C306.477 171.552 306.925 172 307.477 172L307.477 170ZM311.432 172C311.984 172 312.432 171.552 312.432 171C312.432 170.448 311.984 170 311.432 170L311.432 172ZM315.387 170C314.834 170 314.387 170.448 314.387 171C314.387 171.552 314.834 172 315.387 172L315.387 170ZM319.341 172C319.893 172 320.341 171.552 320.341 171C320.341 170.448 319.893 170 319.341 170L319.341 172ZM323.296 170C322.743 170 322.296 170.448 322.296 171C322.296 171.552 322.743 172 323.296 172L323.296 170ZM327.25 172C327.802 172 328.25 171.552 328.25 171C328.25 170.448 327.802 170 327.25 170L327.25 172ZM331.205 170C330.652 170 330.205 170.448 330.205 171C330.205 171.552 330.652 172 331.205 172L331.205 170ZM335.159 172C335.712 172 336.159 171.552 336.159 171C336.159 170.448 335.712 170 335.159 170L335.159 172ZM339.114 170C338.562 170 338.114 170.448 338.114 171C338.114 171.552 338.562 172 339.114 172L339.114 170ZM343.068 172C343.621 172 344.068 171.552 344.068 171C344.068 170.448 343.621 170 343.068 170L343.068 172ZM347.023 170C346.471 170 346.023 170.448 346.023 171C346.023 171.552 346.471 172 347.023 172L347.023 170ZM1 172L2.97727 172L2.97727 170L1 170L1 172ZM6.93182 172L10.8864 172L10.8864 170L6.93182 170L6.93182 172ZM14.8409 172L18.7955 172L18.7955 170L14.8409 170L14.8409 172ZM22.75 172L26.7045 172L26.7045 170L22.75 170L22.75 172ZM30.6591 172L34.6136 172L34.6136 170L30.6591 170L30.6591 172ZM38.5682 172L42.5227 172L42.5227 170L38.5682 170L38.5682 172ZM46.4773 172L50.4318 172L50.4318 170L46.4773 170L46.4773 172ZM54.3864 172L58.3409 172L58.3409 170L54.3864 170L54.3864 172ZM62.2954 172L66.25 172L66.25 170L62.2954 170L62.2954 172ZM70.2045 172L74.1591 172L74.1591 170L70.2045 170L70.2045 172ZM78.1136 172L82.0682 172L82.0682 170L78.1136 170L78.1136 172ZM86.0227 172L89.9773 172L89.9773 170L86.0227 170L86.0227 172ZM93.9318 172L97.8863 172L97.8863 170L93.9318 170L93.9318 172ZM101.841 172L105.795 172L105.795 170L101.841 170L101.841 172ZM109.75 172L113.705 172L113.705 170L109.75 170L109.75 172ZM117.659 172L121.614 172L121.614 170L117.659 170L117.659 172ZM125.568 172L129.523 172L129.523 170L125.568 170L125.568 172ZM133.477 172L137.432 172L137.432 170L133.477 170L133.477 172ZM141.386 172L145.341 172L145.341 170L141.386 170L141.386 172ZM149.295 172L153.25 172L153.25 170L149.295 170L149.295 172ZM157.205 172L161.159 172L161.159 170L157.205 170L157.205 172ZM165.114 172L169.068 172L169.068 170L165.114 170L165.114 172ZM173.023 172L176.977 172L176.977 170L173.023 170L173.023 172ZM180.932 172L184.886 172L184.886 170L180.932 170L180.932 172ZM188.841 172L192.795 172L192.795 170L188.841 170L188.841 172ZM196.75 172L200.704 172L200.704 170L196.75 170L196.75 172ZM204.659 172L208.614 172L208.614 170L204.659 170L204.659 172ZM212.568 172L216.523 172L216.523 170L212.568 170L212.568 172ZM220.477 172L224.432 172L224.432 170L220.477 170L220.477 172ZM228.386 172L232.341 172L232.341 170L228.386 170L228.386 172ZM236.295 172L240.25 172L240.25 170L236.295 170L236.295 172ZM244.204 172L248.159 172L248.159 170L244.204 170L244.204 172ZM252.114 172L256.068 172L256.068 170L252.114 170L252.114 172ZM260.023 172L263.977 172L263.977 170L260.023 170L260.023 172ZM267.932 172L271.886 172L271.886 170L267.932 170L267.932 172ZM275.841 172L279.795 172L279.795 170L275.841 170L275.841 172ZM283.75 172L287.705 172L287.705 170L283.75 170L283.75 172ZM291.659 172L295.614 172L295.614 170L291.659 170L291.659 172ZM299.568 172L303.523 172L303.523 170L299.568 170L299.568 172ZM307.477 172L311.432 172L311.432 170L307.477 170L307.477 172ZM315.387 172L319.341 172L319.341 170L315.387 170L315.387 172ZM323.296 172L327.25 172L327.25 170L323.296 170L323.296 172ZM331.205 172L335.159 172L335.159 170L331.205 170L331.205 172ZM339.114 172L343.068 172L343.068 170L339.114 170L339.114 172ZM347.023 172L349 172L349 170L347.023 170L347.023 172Z" fill="#00B9ED"/>
<path d="M2.97727 62C3.52956 62 3.97727 61.5523 3.97727 61C3.97727 60.4478 3.52956 60 2.97727 60L2.97727 62ZM6.93182 60C6.37953 60 5.93182 60.4478 5.93182 61C5.93182 61.5523 6.37953 62 6.93182 62L6.93182 60ZM10.8864 62C11.4386 62 11.8864 61.5523 11.8864 61C11.8864 60.4478 11.4386 60 10.8864 60L10.8864 62ZM14.8409 60C14.2886 60 13.8409 60.4478 13.8409 61C13.8409 61.5523 14.2886 62 14.8409 62L14.8409 60ZM18.7955 62C19.3477 62 19.7955 61.5523 19.7955 61C19.7955 60.4478 19.3477 60 18.7955 60L18.7955 62ZM22.75 60C22.1977 60 21.75 60.4478 21.75 61C21.75 61.5523 22.1977 62 22.75 62L22.75 60ZM26.7045 62C27.2568 62 27.7045 61.5523 27.7045 61C27.7045 60.4478 27.2568 60 26.7045 60L26.7045 62ZM30.6591 60C30.1068 60 29.6591 60.4477 29.6591 61C29.6591 61.5523 30.1068 62 30.6591 62L30.6591 60ZM34.6136 62C35.1659 62 35.6136 61.5523 35.6136 61C35.6136 60.4477 35.1659 60 34.6136 60L34.6136 62ZM38.5682 60C38.0159 60 37.5682 60.4477 37.5682 61C37.5682 61.5523 38.0159 62 38.5682 62L38.5682 60ZM42.5227 62C43.075 62 43.5227 61.5523 43.5227 61C43.5227 60.4477 43.075 60 42.5227 60L42.5227 62ZM46.4773 60C45.925 60 45.4773 60.4477 45.4773 61C45.4773 61.5523 45.925 62 46.4773 62L46.4773 60ZM50.4318 62C50.9841 62 51.4318 61.5523 51.4318 61C51.4318 60.4477 50.9841 60 50.4318 60L50.4318 62ZM54.3864 60C53.8341 60 53.3864 60.4477 53.3864 61C53.3864 61.5523 53.8341 62 54.3864 62L54.3864 60ZM58.3409 62C58.8932 62 59.3409 61.5523 59.3409 61C59.3409 60.4477 58.8932 60 58.3409 60L58.3409 62ZM62.2954 60C61.7432 60 61.2954 60.4477 61.2954 61C61.2954 61.5523 61.7432 62 62.2954 62L62.2954 60ZM66.25 62C66.8023 62 67.25 61.5523 67.25 61C67.25 60.4477 66.8023 60 66.25 60L66.25 62ZM70.2045 60C69.6523 60 69.2045 60.4477 69.2045 61C69.2045 61.5523 69.6523 62 70.2045 62L70.2045 60ZM74.1591 62C74.7114 62 75.1591 61.5523 75.1591 61C75.1591 60.4477 74.7114 60 74.1591 60L74.1591 62ZM78.1136 60C77.5613 60 77.1136 60.4477 77.1136 61C77.1136 61.5523 77.5613 62 78.1136 62L78.1136 60ZM82.0682 62C82.6205 62 83.0682 61.5523 83.0682 61C83.0682 60.4477 82.6204 60 82.0682 60L82.0682 62ZM86.0227 60C85.4704 60 85.0227 60.4477 85.0227 61C85.0227 61.5523 85.4704 62 86.0227 62L86.0227 60ZM89.9773 62C90.5295 62 90.9773 61.5523 90.9773 61C90.9773 60.4477 90.5295 60 89.9773 60L89.9773 62ZM93.9318 60C93.3795 60 92.9318 60.4477 92.9318 61C92.9318 61.5523 93.3795 62 93.9318 62L93.9318 60ZM97.8863 62C98.4386 62 98.8863 61.5523 98.8863 61C98.8863 60.4477 98.4386 60 97.8863 60L97.8863 62ZM101.841 60C101.289 60 100.841 60.4477 100.841 61C100.841 61.5523 101.289 62 101.841 62L101.841 60ZM105.795 62C106.348 62 106.795 61.5523 106.795 61C106.795 60.4477 106.348 60 105.795 60L105.795 62ZM109.75 60C109.198 60 108.75 60.4477 108.75 61C108.75 61.5523 109.198 62 109.75 62L109.75 60ZM113.705 62C114.257 62 114.705 61.5523 114.705 61C114.705 60.4477 114.257 60 113.705 60L113.705 62ZM117.659 60C117.107 60 116.659 60.4477 116.659 61C116.659 61.5523 117.107 62 117.659 62L117.659 60ZM121.614 62C122.166 62 122.614 61.5523 122.614 61C122.614 60.4477 122.166 60 121.614 60L121.614 62ZM125.568 60C125.016 60 124.568 60.4477 124.568 61C124.568 61.5523 125.016 62 125.568 62L125.568 60ZM129.523 62C130.075 62 130.523 61.5523 130.523 61C130.523 60.4477 130.075 60 129.523 60L129.523 62ZM133.477 60C132.925 60 132.477 60.4477 132.477 61C132.477 61.5523 132.925 62 133.477 62L133.477 60ZM137.432 62C137.984 62 138.432 61.5523 138.432 61C138.432 60.4477 137.984 60 137.432 60L137.432 62ZM141.386 60C140.834 60 140.386 60.4477 140.386 61C140.386 61.5523 140.834 62 141.386 62L141.386 60ZM145.341 62C145.893 62 146.341 61.5523 146.341 61C146.341 60.4477 145.893 60 145.341 60L145.341 62ZM149.295 60C148.743 60 148.295 60.4477 148.295 61C148.295 61.5523 148.743 62 149.295 62L149.295 60ZM153.25 62C153.802 62 154.25 61.5523 154.25 61C154.25 60.4477 153.802 60 153.25 60L153.25 62ZM157.204 60C156.652 60 156.204 60.4477 156.205 61C156.205 61.5523 156.652 62 157.205 62L157.204 60ZM161.159 62C161.711 62 162.159 61.5523 162.159 61C162.159 60.4477 161.711 60 161.159 60L161.159 62ZM165.114 60C164.561 60 164.114 60.4477 164.114 61C164.114 61.5523 164.561 62 165.114 62L165.114 60ZM169.068 62C169.62 62 170.068 61.5523 170.068 61C170.068 60.4477 169.62 60 169.068 60L169.068 62ZM173.023 60C172.47 60 172.023 60.4477 172.023 61C172.023 61.5523 172.47 62 173.023 62L173.023 60ZM176.977 62C177.53 62 177.977 61.5523 177.977 61C177.977 60.4477 177.53 60 176.977 60L176.977 62ZM180.932 60C180.379 60 179.932 60.4477 179.932 61C179.932 61.5523 180.379 62 180.932 62L180.932 60ZM184.886 62C185.439 62 185.886 61.5523 185.886 61C185.886 60.4477 185.439 60 184.886 60L184.886 62ZM188.841 60C188.289 60 187.841 60.4477 187.841 61C187.841 61.5523 188.289 62 188.841 62L188.841 60ZM192.795 62C193.348 62 193.795 61.5523 193.795 61C193.795 60.4477 193.348 60 192.795 60L192.795 62ZM196.75 60C196.198 60 195.75 60.4477 195.75 61C195.75 61.5523 196.198 62 196.75 62L196.75 60ZM200.704 62C201.257 62 201.704 61.5523 201.704 61C201.704 60.4477 201.257 60 200.704 60L200.704 62ZM204.659 60C204.107 60 203.659 60.4477 203.659 61C203.659 61.5523 204.107 62 204.659 62L204.659 60ZM208.614 62C209.166 62 209.614 61.5523 209.614 61C209.614 60.4477 209.166 60 208.614 60L208.614 62ZM212.568 60C212.016 60 211.568 60.4477 211.568 61C211.568 61.5523 212.016 62 212.568 62L212.568 60ZM216.523 62C217.075 62 217.523 61.5523 217.523 61C217.523 60.4477 217.075 60 216.523 60L216.523 62ZM220.477 60C219.925 60 219.477 60.4477 219.477 61C219.477 61.5523 219.925 62 220.477 62L220.477 60ZM224.432 62C224.984 62 225.432 61.5523 225.432 61C225.432 60.4477 224.984 60 224.432 60L224.432 62ZM228.386 60C227.834 60 227.386 60.4477 227.386 61C227.386 61.5523 227.834 62 228.386 62L228.386 60ZM232.341 62C232.893 62 233.341 61.5523 233.341 61C233.341 60.4477 232.893 60 232.341 60L232.341 62ZM236.295 60C235.743 60 235.295 60.4477 235.295 61C235.295 61.5523 235.743 62 236.295 62L236.295 60ZM240.25 62C240.802 62 241.25 61.5523 241.25 61C241.25 60.4477 240.802 60 240.25 60L240.25 62ZM244.204 60C243.652 60 243.204 60.4477 243.204 61C243.204 61.5523 243.652 62 244.204 62L244.204 60ZM248.159 62C248.711 62 249.159 61.5523 249.159 61C249.159 60.4477 248.711 60 248.159 60L248.159 62ZM252.114 60C251.561 60 251.114 60.4477 251.114 61C251.114 61.5523 251.561 62 252.114 62L252.114 60ZM256.068 62C256.62 62 257.068 61.5523 257.068 61C257.068 60.4477 256.62 60 256.068 60L256.068 62ZM260.023 60C259.47 60 259.023 60.4477 259.023 61C259.023 61.5523 259.47 62 260.023 62L260.023 60ZM263.977 62C264.53 62 264.977 61.5523 264.977 61C264.977 60.4477 264.53 60 263.977 60L263.977 62ZM267.932 60C267.379 60 266.932 60.4477 266.932 61C266.932 61.5523 267.379 62 267.932 62L267.932 60ZM271.886 62C272.439 62 272.886 61.5523 272.886 61C272.886 60.4477 272.439 60 271.886 60L271.886 62ZM275.841 60C275.289 60 274.841 60.4477 274.841 61C274.841 61.5523 275.289 62 275.841 62L275.841 60ZM279.795 62C280.348 62 280.795 61.5523 280.795 61C280.795 60.4477 280.348 60 279.795 60L279.795 62ZM283.75 60C283.198 60 282.75 60.4477 282.75 61C282.75 61.5523 283.198 62 283.75 62L283.75 60ZM287.705 62C288.257 62 288.705 61.5523 288.705 61C288.705 60.4477 288.257 60 287.705 60L287.705 62ZM291.659 60C291.107 60 290.659 60.4477 290.659 61C290.659 61.5523 291.107 62 291.659 62L291.659 60ZM295.614 62C296.166 62 296.614 61.5523 296.614 61C296.614 60.4477 296.166 60 295.614 60L295.614 62ZM299.568 60C299.016 60 298.568 60.4477 298.568 61C298.568 61.5523 299.016 62 299.568 62L299.568 60ZM303.523 62C304.075 62 304.523 61.5523 304.523 61C304.523 60.4477 304.075 60 303.523 60L303.523 62ZM307.477 60C306.925 60 306.477 60.4477 306.477 61C306.477 61.5523 306.925 62 307.477 62L307.477 60ZM311.432 62C311.984 62 312.432 61.5523 312.432 61C312.432 60.4477 311.984 60 311.432 60L311.432 62ZM315.387 60C314.834 60 314.387 60.4477 314.387 61C314.387 61.5523 314.834 62 315.387 62L315.387 60ZM319.341 62C319.893 62 320.341 61.5523 320.341 61C320.341 60.4477 319.893 60 319.341 60L319.341 62ZM323.296 60C322.743 60 322.296 60.4477 322.296 61C322.296 61.5522 322.743 62 323.296 62L323.296 60ZM327.25 62C327.802 62 328.25 61.5522 328.25 61C328.25 60.4477 327.802 60 327.25 60L327.25 62ZM331.205 60C330.652 60 330.205 60.4477 330.205 61C330.205 61.5522 330.652 62 331.205 62L331.205 60ZM335.159 62C335.712 62 336.159 61.5522 336.159 61C336.159 60.4477 335.712 60 335.159 60L335.159 62ZM339.114 60C338.562 60 338.114 60.4477 338.114 61C338.114 61.5522 338.562 62 339.114 62L339.114 60ZM343.068 62C343.621 62 344.068 61.5522 344.068 61C344.068 60.4477 343.621 60 343.068 60L343.068 62ZM347.023 60C346.471 60 346.023 60.4477 346.023 61C346.023 61.5522 346.471 62 347.023 62L347.023 60ZM1 62L2.97727 62L2.97727 60L1 60L1 62ZM6.93182 62L10.8864 62L10.8864 60L6.93182 60L6.93182 62ZM14.8409 62L18.7955 62L18.7955 60L14.8409 60L14.8409 62ZM22.75 62L26.7045 62L26.7045 60L22.75 60L22.75 62ZM30.6591 62L34.6136 62L34.6136 60L30.6591 60L30.6591 62ZM38.5682 62L42.5227 62L42.5227 60L38.5682 60L38.5682 62ZM46.4773 62L50.4318 62L50.4318 60L46.4773 60L46.4773 62ZM54.3864 62L58.3409 62L58.3409 60L54.3864 60L54.3864 62ZM62.2954 62L66.25 62L66.25 60L62.2954 60L62.2954 62ZM70.2045 62L74.1591 62L74.1591 60L70.2045 60L70.2045 62ZM78.1136 62L82.0682 62L82.0682 60L78.1136 60L78.1136 62ZM86.0227 62L89.9773 62L89.9773 60L86.0227 60L86.0227 62ZM93.9318 62L97.8863 62L97.8863 60L93.9318 60L93.9318 62ZM101.841 62L105.795 62L105.795 60L101.841 60L101.841 62ZM109.75 62L113.705 62L113.705 60L109.75 60L109.75 62ZM117.659 62L121.614 62L121.614 60L117.659 60L117.659 62ZM125.568 62L129.523 62L129.523 60L125.568 60L125.568 62ZM133.477 62L137.432 62L137.432 60L133.477 60L133.477 62ZM141.386 62L145.341 62L145.341 60L141.386 60L141.386 62ZM149.295 62L153.25 62L153.25 60L149.295 60L149.295 62ZM157.205 62L161.159 62L161.159 60L157.204 60L157.205 62ZM165.114 62L169.068 62L169.068 60L165.114 60L165.114 62ZM173.023 62L176.977 62L176.977 60L173.023 60L173.023 62ZM180.932 62L184.886 62L184.886 60L180.932 60L180.932 62ZM188.841 62L192.795 62L192.795 60L188.841 60L188.841 62ZM196.75 62L200.704 62L200.704 60L196.75 60L196.75 62ZM204.659 62L208.614 62L208.614 60L204.659 60L204.659 62ZM212.568 62L216.523 62L216.523 60L212.568 60L212.568 62ZM220.477 62L224.432 62L224.432 60L220.477 60L220.477 62ZM228.386 62L232.341 62L232.341 60L228.386 60L228.386 62ZM236.295 62L240.25 62L240.25 60L236.295 60L236.295 62ZM244.204 62L248.159 62L248.159 60L244.204 60L244.204 62ZM252.114 62L256.068 62L256.068 60L252.114 60L252.114 62ZM260.023 62L263.977 62L263.977 60L260.023 60L260.023 62ZM267.932 62L271.886 62L271.886 60L267.932 60L267.932 62ZM275.841 62L279.795 62L279.795 60L275.841 60L275.841 62ZM283.75 62L287.705 62L287.705 60L283.75 60L283.75 62ZM291.659 62L295.614 62L295.614 60L291.659 60L291.659 62ZM299.568 62L303.523 62L303.523 60L299.568 60L299.568 62ZM307.477 62L311.432 62L311.432 60L307.477 60L307.477 62ZM315.387 62L319.341 62L319.341 60L315.387 60L315.387 62ZM323.296 62L327.25 62L327.25 60L323.296 60L323.296 62ZM331.205 62L335.159 62L335.159 60L331.205 60L331.205 62ZM339.114 62L343.068 62L343.068 60L339.114 60L339.114 62ZM347.023 62L349 62L349 60L347.023 60L347.023 62Z" fill="#00B9ED"/>
<path d="M15 116L5 110.226V121.774L15 116ZM2.75 117C3.30228 117 3.75 116.552 3.75 116C3.75 115.448 3.30228 115 2.75 115V117ZM6.25 115C5.69772 115 5.25 115.448 5.25 116C5.25 116.552 5.69772 117 6.25 117V115ZM9.75 117C10.3023 117 10.75 116.552 10.75 116C10.75 115.448 10.3023 115 9.75 115V117ZM13.25 115C12.6977 115 12.25 115.448 12.25 116C12.25 116.552 12.6977 117 13.25 117V115ZM1 117H2.75V115H1V117ZM6.25 117H9.75V115H6.25V117Z" fill="#00B9ED"/>
<path d="M15 226L5 220.226V231.774L15 226ZM2.75 227C3.30228 227 3.75 226.552 3.75 226C3.75 225.448 3.30228 225 2.75 225V227ZM6.25 225C5.69772 225 5.25 225.448 5.25 226C5.25 226.552 5.69772 227 6.25 227V225ZM9.75 227C10.3023 227 10.75 226.552 10.75 226C10.75 225.448 10.3023 225 9.75 225V227ZM13.25 225C12.6977 225 12.25 225.448 12.25 226C12.25 226.552 12.6977 227 13.25 227V225ZM1 227H2.75V225H1V227ZM6.25 227H9.75V225H6.25V227Z" fill="#00B9ED"/>
<path d="M185 226L175 220.226V231.774L185 226ZM166.667 227C167.219 227 167.667 226.552 167.667 226C167.667 225.448 167.219 225 166.667 225V227ZM170 225C169.448 225 169 225.448 169 226C169 226.552 169.448 227 170 227V225ZM173.333 227C173.886 227 174.333 226.552 174.333 226C174.333 225.448 173.886 225 173.333 225V227ZM176.667 225C176.114 225 175.667 225.448 175.667 226C175.667 226.552 176.114 227 176.667 227V225ZM180 227C180.552 227 181 226.552 181 226C181 225.448 180.552 225 180 225V227ZM183.333 225C182.781 225 182.333 225.448 182.333 226C182.333 226.552 182.781 227 183.333 227V225ZM165 227H166.667V225H165V227ZM170 227H173.333V225H170V227ZM176.667 227H180V225H176.667V227Z" fill="#00B9ED"/>
<path d="M185 6L175 0.226497V11.7735L185 6ZM166.667 7C167.219 7 167.667 6.55228 167.667 6C167.667 5.44772 167.219 5 166.667 5V7ZM170 5C169.448 5 169 5.44772 169 6C169 6.55228 169.448 7 170 7V5ZM173.333 7C173.886 7 174.333 6.55228 174.333 6C174.333 5.44772 173.886 5 173.333 5V7ZM176.667 5C176.114 5 175.667 5.44772 175.667 6C175.667 6.55228 176.114 7 176.667 7V5ZM180 7C180.552 7 181 6.55228 181 6C181 5.44772 180.552 5 180 5V7ZM183.333 5C182.781 5 182.333 5.44772 182.333 6C182.333 6.55228 182.781 7 183.333 7V5ZM165 7H166.667V5H165V7ZM170 7H173.333V5H170V7ZM176.667 7H180V5H176.667V7Z" fill="#00B9ED"/>
<path d="M185 116L175 110.226V121.774L185 116ZM166.667 117C167.219 117 167.667 116.552 167.667 116C167.667 115.448 167.219 115 166.667 115V117ZM170 115C169.448 115 169 115.448 169 116C169 116.552 169.448 117 170 117V115ZM173.333 117C173.886 117 174.333 116.552 174.333 116C174.333 115.448 173.886 115 173.333 115V117ZM176.667 115C176.114 115 175.667 115.448 175.667 116C175.667 116.552 176.114 117 176.667 117V115ZM180 117C180.552 117 181 116.552 181 116C181 115.448 180.552 115 180 115V117ZM183.333 115C182.781 115 182.333 115.448 182.333 116C182.333 116.552 182.781 117 183.333 117V115ZM165 117H166.667V115H165V117ZM170 117H173.333V115H170V117ZM176.667 117H180V115H176.667V117Z" fill="#00B9ED"/>
</svg>
