<svg width="45" height="45" viewBox="0 0 45 45" fill="none" xmlns="http://www.w3.org/2000/svg">
<rect width="45" height="45" rx="3" fill="black"/>
<path d="M30.5879 22.2524C30.5536 18.4564 33.7064 16.6097 33.8506 16.5237C32.065 13.9291 29.2975 13.5746 28.325 13.5463C26.0006 13.3025 23.7459 14.9326 22.5619 14.9326C21.3542 14.9326 19.5309 13.5699 17.5657 13.6099C15.0369 13.6488 12.6712 15.1081 11.3737 17.3741C8.69595 21.9944 10.693 28.7842 13.2585 32.5189C14.5418 34.348 16.0413 36.3902 18.0041 36.3184C19.9244 36.2395 20.6416 35.0982 22.9589 35.0982C25.255 35.0982 25.9285 36.3184 27.9303 36.2725C29.9912 36.2395 31.2887 34.4352 32.5271 32.5896C34.0101 30.4932 34.6057 28.4286 34.6293 28.3226C34.5808 28.3061 30.6269 26.8021 30.5879 22.2524Z" fill="white"/>
<path d="M26.8065 11.0896C27.8393 9.80226 28.5459 8.05093 28.3497 6.27368C26.8549 6.33964 24.9855 7.30423 23.909 8.56326C22.9565 9.67271 22.1057 11.4912 22.3255 13.2013C24.0047 13.3261 25.7288 12.3568 26.8065 11.0896Z" fill="white"/>
</svg>
