<svg width="45" height="45" viewBox="0 0 45 45" fill="none" xmlns="http://www.w3.org/2000/svg">
<path d="M41.7546 0H3.24543C1.45294 0 0 1.45294 0 3.24543V41.7546C0 43.5471 1.45294 45 3.24543 45H41.7546C43.5471 45 45 43.5471 45 41.7546V3.24543C45 1.45294 43.5471 0 41.7546 0ZM22.6758 34.5441C21.2829 34.5441 19.9385 34.3474 18.6737 33.9831L14.1363 36.5625V31.71C11.0972 29.3974 9.15642 25.8752 9.15642 21.9304C9.15642 14.9637 15.2092 9.31641 22.6758 9.31641C30.1427 9.31641 36.1951 14.9637 36.1951 21.9304C36.1951 28.8964 30.1427 34.5441 22.6758 34.5441Z" fill="#2196F3"/>
<path d="M21.2322 18.4756L13.9414 26.1949L20.5765 22.5543L24.0433 26.1949L31.2933 18.4756L24.7317 22.0523L21.2322 18.4756Z" fill="#2196F3"/>
</svg>
