<svg width="16" height="15" viewBox="0 0 16 15" fill="none" xmlns="http://www.w3.org/2000/svg">
<path d="M15.69 4.32312C15.6806 3.71506 15.5588 3.11307 15.33 2.54356C15.1328 2.04969 14.8183 1.60377 14.41 1.23917C14.0201 0.863764 13.5452 0.574114 13.02 0.391316C12.4057 0.175472 11.7564 0.058888 11.1 0.0465853C10.26 0 9.94999 0 7.83999 0C5.73 0 5.43 0 4.59 0.0465853C3.93738 0.055315 3.29125 0.168781 2.68 0.381999C2.14993 0.565707 1.67132 0.858741 1.28 1.23917C0.877078 1.60244 0.566197 2.04487 0.37 2.53424C0.138334 3.10658 0.0132045 3.71155 0 4.32312C0 5.10575 0 5.35731 0 7.35116C0 9.34501 0 9.60589 0.05 10.3885C0.0593696 10.9966 0.181152 11.5986 0.41 12.1681C0.611061 12.6601 0.925045 13.1053 1.33 13.4725C1.7199 13.8479 2.19476 14.1375 2.72 14.3203C3.33429 14.5362 3.98361 14.6527 4.64 14.6651C5.48 14.6651 5.75 14.6651 7.89 14.6651C10.03 14.6651 10.3 14.6651 11.15 14.6651C11.8031 14.6528 12.4492 14.5362 13.06 14.3203C13.5859 14.1332 14.0635 13.8448 14.4616 13.4739C14.8596 13.1031 15.1692 12.6581 15.37 12.1681C15.598 11.598 15.723 10.9967 15.74 10.3885C15.74 9.60589 15.74 9.35433 15.74 7.35116C15.74 5.34799 15.73 5.10575 15.69 4.32312ZM14.27 10.3326C14.2681 10.7974 14.1766 11.2582 14 11.6929C13.8706 12.0116 13.6699 12.301 13.4113 12.542C13.1527 12.7829 12.842 12.9699 12.5 13.0905C12.0331 13.2539 11.5388 13.339 11.04 13.342C10.2 13.342 9.94999 13.342 7.85 13.342C5.75 13.342 5.49 13.342 4.66 13.342C4.15788 13.3399 3.66014 13.2548 3.19 13.0905C2.85028 12.9711 2.54299 12.7834 2.29 12.5408C2.02729 12.3032 1.8256 12.0133 1.7 11.6929C1.52233 11.2585 1.43084 10.7975 1.43 10.3326C1.43 9.5593 1.38 9.32638 1.38 7.36048C1.38 5.39458 1.38 5.16165 1.43 4.38833C1.43084 3.92341 1.52233 3.4625 1.7 3.02804C1.828 2.70874 2.02937 2.41937 2.29 2.18019C2.54849 1.93939 2.85856 1.75208 3.2 1.63049C3.6663 1.46495 4.161 1.37971 4.66 1.37892C5.49 1.37892 5.74 1.33234 7.85 1.33234C9.95999 1.33234 10.21 1.33234 11.04 1.37892C11.539 1.37971 12.0337 1.46495 12.5 1.63049C12.8439 1.74751 13.155 1.93542 13.41 2.18019C13.6684 2.42103 13.8695 2.70993 14 3.02804C14.1777 3.4625 14.2691 3.92341 14.27 4.38833C14.27 5.16165 14.27 5.39458 14.27 7.36048C14.27 9.32638 14.31 9.54999 14.27 10.3326Z" fill="black"/>
<path d="M7.84 3.57776C7.03879 3.58695 6.25841 3.81683 5.59715 4.23844C4.93588 4.66006 4.42331 5.25455 4.12397 5.94705C3.82463 6.63955 3.75192 7.3991 3.91498 8.13002C4.07805 8.86095 4.46961 9.53058 5.04035 10.0546C5.61109 10.5786 6.33548 10.9335 7.1223 11.0747C7.90912 11.2158 8.72318 11.1369 9.46196 10.8479C10.2007 10.5588 10.8312 10.0726 11.2739 9.45034C11.7167 8.8281 11.9519 8.09771 11.95 7.35116C11.9487 6.85125 11.8411 6.35653 11.6334 5.89561C11.4256 5.43468 11.1219 5.01669 10.7397 4.66581C10.3575 4.31492 9.90445 4.0381 9.40674 3.85134C8.90903 3.66459 8.37652 3.5716 7.84 3.57776ZM7.84 9.81087C7.31786 9.81087 6.80745 9.66661 6.3733 9.39633C5.93915 9.12606 5.60078 8.7419 5.40096 8.29245C5.20115 7.843 5.14887 7.34844 5.25073 6.8713C5.3526 6.39416 5.60403 5.95589 5.97324 5.61189C6.34245 5.2679 6.81286 5.03363 7.32497 4.93872C7.83708 4.84382 8.36789 4.89253 8.85029 5.0787C9.33268 5.26486 9.745 5.58013 10.0351 5.98463C10.3252 6.38912 10.48 6.86468 10.48 7.35116C10.48 8.00352 10.2019 8.62915 9.70676 9.09044C9.21167 9.55172 8.54017 9.81087 7.84 9.81087Z" fill="black"/>
<path d="M13.01 3.42868C13.01 3.61296 12.9514 3.79309 12.8415 3.94631C12.7316 4.09953 12.5754 4.21895 12.3927 4.28947C12.21 4.35999 12.0089 4.37844 11.8149 4.34249C11.6209 4.30654 11.4428 4.2178 11.3029 4.0875C11.1631 3.9572 11.0678 3.79118 11.0292 3.61045C10.9906 3.42972 11.0104 3.24238 11.0861 3.07214C11.1618 2.90189 11.29 2.75638 11.4544 2.654C11.6189 2.55162 11.8122 2.49698 12.01 2.49698C12.2752 2.49698 12.5296 2.59514 12.7171 2.76987C12.9047 2.9446 13.01 3.18158 13.01 3.42868Z" fill="black"/>
</svg>
