<svg width="15" height="14" viewBox="0 0 15 14" fill="none" xmlns="http://www.w3.org/2000/svg">
<path d="M13.9918 11.5567L13.3118 12.1809C12.8819 12.594 12.345 12.8967 11.753 13.0599C11.1609 13.2231 10.5336 13.2413 9.93178 13.1127C8.70267 12.8076 7.53437 12.3199 6.47178 11.6685C5.48394 11.0805 4.56844 10.3931 3.74178 9.61875C2.99229 8.91748 2.32211 8.14633 1.74178 7.31744C1.07022 6.41961 0.538286 5.43781 0.16178 4.4012C-0.0331381 3.81605 -0.0523068 3.19233 0.106355 2.59774C0.265016 2.00315 0.595446 1.46041 1.06178 1.02843L1.86178 0.29238C1.91319 0.241623 1.97519 0.201185 2.04397 0.173547C2.11276 0.145909 2.18687 0.131653 2.26178 0.131653C2.33669 0.131653 2.4108 0.145909 2.47959 0.173547C2.54837 0.201185 2.61037 0.241623 2.66178 0.29238L5.18178 2.59369C5.28745 2.69462 5.3466 2.83004 5.3466 2.97103C5.3466 3.11203 5.28745 3.24744 5.18178 3.34837L3.70178 4.75525C3.49662 4.94309 3.37142 5.19381 3.34936 5.46102C3.3273 5.72823 3.40986 5.99384 3.58178 6.20871C4.11217 6.88568 4.70077 7.52134 5.34178 8.10939C6.0577 8.79358 6.83743 9.41716 7.67178 9.9728C7.90421 10.1256 8.18698 10.1972 8.47044 10.175C8.75389 10.1529 9.01991 10.0384 9.22178 9.85168L10.6518 8.48207C10.7584 8.3842 10.9021 8.32935 11.0518 8.32935C11.2015 8.32935 11.3451 8.3842 11.4518 8.48207L13.9918 10.8113C14.0968 10.9107 14.1557 11.0446 14.1557 11.184C14.1557 11.3235 14.0968 11.4573 13.9918 11.5567Z" fill="black"/>
</svg>
