<svg width="21" height="15" viewBox="0 0 21 15" fill="none" xmlns="http://www.w3.org/2000/svg">
<path d="M10.575 14.1643C8.12738 14.1861 5.68123 14.0459 3.25495 13.745C2.73874 13.6206 2.26743 13.3704 1.88953 13.0199C1.51164 12.6695 1.24082 12.2315 1.10494 11.7511C0.833844 10.3716 0.71323 8.96997 0.744945 7.56777C0.713857 6.15324 0.834455 4.73935 1.10494 3.34715C1.24843 2.87081 1.52043 2.43663 1.89503 2.08598C2.26964 1.73533 2.73437 1.47988 3.24495 1.34398C5.67176 1.04901 8.11769 0.91203 10.565 0.934027C13.0159 0.911657 15.4654 1.05177 17.895 1.35329C18.4075 1.48054 18.8746 1.7321 19.2488 2.08236C19.623 2.43262 19.8908 2.86904 20.025 3.34715C20.3069 4.74423 20.4276 6.1654 20.385 7.58641C20.4218 8.98565 20.3011 10.3846 20.025 11.7605C19.8899 12.2397 19.6206 12.6769 19.2446 13.0272C18.8686 13.3776 18.3993 13.6285 17.885 13.7543C15.4575 14.0416 13.0119 14.1755 10.565 14.1549L10.575 14.1643ZM2.59495 3.72915C2.35797 4.99626 2.25414 6.28188 2.28495 7.56777C2.24938 8.84451 2.35324 10.1213 2.59495 11.3785C2.66575 11.5988 2.7942 11.7993 2.96875 11.9619C3.14329 12.1245 3.35847 12.2442 3.59495 12.3102C5.89357 12.5769 8.20865 12.7014 10.525 12.6828C12.841 12.7045 15.1561 12.5831 17.455 12.3195C17.691 12.2528 17.9058 12.1328 18.0802 11.9703C18.2546 11.8078 18.3834 11.6077 18.455 11.3878C18.6909 10.1331 18.7947 8.85991 18.765 7.58641C18.8344 6.29735 18.7641 5.00504 18.555 3.72915C18.4871 3.49322 18.3532 3.27833 18.167 3.10644C17.9807 2.93455 17.7488 2.81184 17.495 2.75085C15.2002 2.47887 12.8881 2.35435 10.575 2.37817C8.2592 2.3581 5.94446 2.47636 3.64495 2.73222C3.39283 2.80049 3.16381 2.92806 2.97992 3.10265C2.79603 3.27725 2.66345 3.493 2.59495 3.72915ZM8.61495 10.4467V4.66085L13.985 7.54914L8.61495 10.4467Z" fill="black"/>
</svg>
